<?xml version="1.0" encoding="UTF-8"?>
<svg width="512" height="512" viewBox="0 0 512 512" xmlns="http://www.w3.org/2000/svg">
  <defs>
    <linearGradient id="bgGradient" x1="0%" y1="0%" x2="100%" y2="100%">
      <stop offset="0%" style="stop-color:#8B5CF6;stop-opacity:1" />
      <stop offset="100%" style="stop-color:#A855F7;stop-opacity:1" />
    </linearGradient>
    <linearGradient id="iconGradient" x1="0%" y1="0%" x2="100%" y2="100%">
      <stop offset="0%" style="stop-color:#FFFFFF;stop-opacity:1" />
      <stop offset="100%" style="stop-color:#F8FAFC;stop-opacity:1" />
    </linearGradient>
  </defs>
  
  <!-- Background with rounded corners -->
  <rect width="512" height="512" rx="90" ry="90" fill="url(#bgGradient)"/>
  
  <!-- Main icon: Stylized "L" with sparkle -->
  <g transform="translate(256, 256)">
    <!-- Background circle for the L -->
    <circle cx="0" cy="0" r="100" fill="rgba(255,255,255,0.15)" stroke="rgba(255,255,255,0.3)" stroke-width="4"/>
    
    <!-- Letter L -->
    <path d="M -40 -60 L -40 40 L 40 40 L 40 20 L -20 20 L -20 -60 Z" fill="url(#iconGradient)" stroke="none"/>
    
    <!-- Sparkle elements -->
    <g opacity="0.9">
      <!-- Main sparkle -->
      <circle cx="30" cy="-30" r="3" fill="#FFFFFF"/>
      <circle cx="30" cy="-30" r="1.5" fill="#FBBF24"/>
      
      <!-- Secondary sparkles -->
      <circle cx="-40" cy="-40" r="2" fill="#FFFFFF"/>
      <circle cx="-40" cy="-40" r="1" fill="#FBBF24"/>
      
      <circle cx="45" cy="45" r="2.5" fill="#FFFFFF"/>
      <circle cx="45" cy="45" r="1.25" fill="#FBBF24"/>
      
      <circle cx="-50" cy="30" r="1.5" fill="#FFFFFF"/>
      <circle cx="-50" cy="30" r="0.75" fill="#FBBF24"/>
    </g>
    
    <!-- Subtle glow effect -->
    <circle cx="0" cy="0" r="110" fill="none" stroke="rgba(255,255,255,0.1)" stroke-width="1"/>
  </g>
  
  <!-- Subtle texture overlay -->
  <rect width="512" height="512" fill="url(#bgGradient)" opacity="0.1"/>
</svg>

